<svg width="251" height="48" viewBox="0 0 251 48" fill="none" xmlns="http://www.w3.org/2000/svg">
<path d="M9.50164 23.9065C9.51183 23.6194 9.56832 23.3443 9.63551 23.1272L9.88962 22.8113C9.98393 22.694 10.0153 22.5623 10.0286 22.4942C10.0447 22.4119 10.0514 22.3249 10.054 22.2429C10.0593 22.0779 10.0493 21.8757 10.0316 21.6554C9.99651 21.2193 9.92571 20.6495 9.84865 20.0293L9.84511 20.0007C9.68608 18.7208 9.5 17.2107 9.5 15.9979C9.5 15.8244 9.57599 15.5868 9.78301 15.2814C9.98713 14.9802 10.2935 14.6505 10.6891 14.3034C11.4798 13.6097 12.5707 12.8952 13.7418 12.248C14.9099 11.6025 16.1391 11.0342 17.1949 10.6287C17.7229 10.4259 18.202 10.266 18.6048 10.1574C19.0164 10.0464 19.317 9.99787 19.5 9.99787C19.6925 9.99787 19.841 10.0027 19.9533 10.0103L20.1886 10.0261L20.3505 9.85455L20.3536 9.85141C20.6821 9.52284 21 9.01903 21 8.49787V8.46233L20.995 8.42716C20.9222 7.91752 20.9642 7.07878 21.1266 6.31427C21.2071 5.93526 21.3124 5.59803 21.4341 5.34275C21.5644 5.0696 21.6761 4.96884 21.7236 4.9451L21.7962 4.90881L21.8536 4.85144C21.8893 4.8157 22.0225 4.73171 22.2879 4.65188C22.535 4.57759 22.8414 4.52337 23.161 4.50597C23.4813 4.48853 23.7972 4.50904 24.0671 4.57262C24.3414 4.63721 24.5326 4.73756 24.6465 4.85146C25.3118 5.51671 25.5 6.53528 25.5 7.49789C25.5 8.02252 25.4763 8.70089 24.7764 9.05083C24.04 9.41905 23.6515 9.92972 23.6413 10.4817C23.6365 10.7431 23.7214 10.981 23.8597 11.1608C23.9644 11.2969 24.1331 11.4381 24.3506 11.4843L25.2764 11.9472L25.382 12H25.4902C25.4925 12.0009 25.5203 12.0064 25.5739 12.0331C25.6404 12.0663 25.718 12.118 25.791 12.1836C25.9573 12.3328 26 12.4573 26 12.4979V12.5942L26.0358 12.6836L27.0358 15.1835L27.0435 15.2028L27.0528 15.2214C27.1776 15.471 27.4536 15.8075 27.9007 15.9101C28.3824 16.0206 28.8826 15.8223 29.3535 15.3514C30.1951 14.5099 30.7589 13.5982 30.9472 13.2215L31.0171 13.0818L30.995 12.9272C30.917 12.3813 30.8984 11.5803 31.0704 10.9401C31.1559 10.6217 31.2783 10.382 31.427 10.2279C31.5626 10.0874 31.7373 9.99787 32 9.99787C32.4967 9.99787 32.7371 10.1636 32.8678 10.345C33.0166 10.5513 33.0906 10.8722 33.0636 11.2771C33.0371 11.6752 32.9157 12.0964 32.7464 12.4419C32.5666 12.8085 32.3781 12.9998 32.2764 13.0507L32.11 13.1339L32.0385 13.3056C31.6261 14.2952 30.9601 15.7496 30.3033 16.9C29.9725 17.4794 29.6583 17.9562 29.3923 18.2577C29.2774 18.3879 29.1895 18.4645 29.1306 18.5042L29.118 18.4979H29H27.5972C27.1954 18.3338 26.6394 18.0854 26.1765 17.8336C25.9252 17.6969 25.7194 17.5688 25.5828 17.4612C25.5391 17.4268 25.5092 17.3996 25.4898 17.3801C25.4819 17.3403 25.4652 17.2804 25.4303 17.2199C25.3981 17.164 25.2908 17.0064 25.0685 16.9736C24.8495 16.9413 24.7028 17.0578 24.6578 17.0986C24.5712 17.1771 24.534 17.269 24.533 17.2713C24.5031 17.3376 24.4819 17.4244 24.471 17.4693L24.4703 17.4722C24.4395 17.5986 24.3966 17.801 24.3463 18.0452C24.321 18.1674 24.2936 18.3017 24.2642 18.4456C24.1742 18.8859 24.0661 19.4149 23.9489 19.9541C23.7931 20.671 23.6244 21.3903 23.4658 21.9263C23.3857 22.1973 23.3137 22.402 23.254 22.5316C23.2481 22.5442 23.2428 22.5553 23.238 22.5649C23.157 22.6107 23.0411 22.7079 22.997 22.8782C22.9555 23.0388 23.0033 23.1686 23.0344 23.2311C23.0867 23.3358 23.164 23.397 23.1801 23.4098L23.1816 23.411C23.2102 23.4338 23.2377 23.4516 23.2567 23.4632C23.3274 23.5068 23.4294 23.5563 23.5339 23.6048C23.7556 23.7075 24.0955 23.8533 24.5077 24.0284C24.6357 24.0827 24.7713 24.1401 24.9133 24.2002C25.6937 24.5306 26.6709 24.9444 27.6708 25.3917C28.8546 25.9213 30.0561 26.4918 30.9882 27.019C31.4554 27.2832 31.8415 27.5291 32.1202 27.7466C32.2594 27.8552 32.3625 27.9496 32.4333 28.0284C32.4682 28.0673 32.4918 28.0987 32.5071 28.1224C32.5217 28.1451 32.5257 28.1561 32.5257 28.1561L32.5257 28.156C32.6981 28.6734 32.7409 29.3125 32.713 29.9252C32.6856 30.529 32.5916 31.0677 32.5165 31.3705L30.0182 40.3641L29.973 40.5268L30.0358 40.6836C30.2069 41.1113 30.49 41.7556 30.7858 42.2993C30.9324 42.5689 31.0919 42.8319 31.251 43.0338C31.3298 43.134 31.4217 43.236 31.5249 43.3174C31.6181 43.3908 31.7836 43.4979 32 43.4979C32.0009 43.4979 32.013 43.4984 32.0395 43.5049C32.0676 43.5118 32.1042 43.5235 32.1513 43.5419C32.2398 43.5764 32.3352 43.6219 32.4546 43.6788C32.4686 43.6855 32.4829 43.6923 32.4975 43.6993L32.512 43.7062C32.7234 43.807 33.0385 43.9571 33.3681 43.991L34 44.3069V44.4977H30.1328L27.0158 42.7167C27.0986 41.9824 27.5072 41.3033 28.2236 40.9451L28.2346 40.9396C28.3334 40.8903 28.5351 40.7896 28.693 40.6694C28.7673 40.6129 28.8941 40.5072 28.9703 40.3519C29.0128 40.2651 29.0498 40.1418 29.0305 39.9969C29.0246 39.9526 29.0141 39.9111 29 39.8723V37.4979V37.4484L28.9903 37.3998C28.8255 36.5761 28.6032 35.2908 28.4719 34.1173C28.4061 33.5296 28.3645 32.9807 28.3625 32.5363C28.3615 32.3139 28.3706 32.1269 28.3891 31.9793C28.4086 31.8233 28.4347 31.7464 28.4472 31.7215C28.5925 31.431 28.4781 31.167 28.3803 31.0291C28.2874 30.8982 28.1628 30.8032 28.0757 30.7441C27.981 30.6798 27.8861 30.6288 27.8186 30.595C27.7839 30.5777 27.7544 30.5639 27.7328 30.5541L27.7064 30.5424L27.6981 30.5388L27.6952 30.5376L27.6942 30.5371L27.6937 30.5369L27.6935 30.5368C27.6934 30.5368 27.6933 30.5368 27.5 30.9979L27.6933 30.5368L27.6845 30.5331L27.6756 30.5297C27.0032 30.2776 25.9449 29.8996 24.9514 29.5839C24.4551 29.4261 23.9695 29.2822 23.5537 29.1772C23.1545 29.0763 22.7697 28.9979 22.5 28.9979C21.954 28.9979 21.5124 29.2265 21.1955 29.4862C20.8967 29.7312 20.6845 30.0226 20.5683 30.2441C19.9086 31.2314 18.8042 32.751 17.6215 34.1213C17.0254 34.8119 16.4156 35.4574 15.8379 35.9758C15.2525 36.5012 14.7319 36.8666 14.3143 37.0336C12.3648 37.8133 6.97273 39.3198 4.43441 39.9979H3.5H3.13962L3.02566 40.3398L2.5369 41.8061L1.19099 44.4977L0.576509 44.4977L0.993184 41.5811C1.04602 41.3041 1.03609 40.9853 1.01243 40.6934C0.994008 40.4662 0.963867 40.2225 0.93563 39.9943C0.926392 39.9196 0.917358 39.8465 0.909004 39.7763C0.873434 39.477 0.849784 39.2252 0.854539 39.0302C0.856705 38.9414 0.864604 38.8811 0.873385 38.8433C0.899674 38.832 0.951887 38.8139 1.04367 38.7994C1.19534 38.7754 1.39324 38.7708 1.62039 38.7843C1.97314 38.8052 2.35062 38.8667 2.64788 38.9297C2.64968 38.932 2.6515 38.9343 2.65334 38.9366C2.76878 39.0809 2.93016 39.1671 3.10458 39.201C3.42247 39.2628 3.79845 39.1575 4.22358 38.9449C4.53046 38.7915 4.94744 38.4738 5.38431 38.1213C5.65353 37.904 5.95248 37.6549 6.26182 37.3972C6.46534 37.2276 6.67335 37.0543 6.88034 36.8838C7.40969 36.4479 7.94501 36.02 8.43727 35.6717C8.93943 35.3163 9.35756 35.0724 9.65814 34.9722C9.99028 34.8615 10.6172 34.7413 11.2905 34.6482C11.9583 34.556 12.6173 34.4978 13 34.4978H13.309L13.4472 34.2214C13.9482 33.2193 14.7 31.6907 15.3272 30.3611C15.6405 29.6969 15.9246 29.0783 16.1311 28.5986C16.2341 28.3594 16.3202 28.149 16.3815 27.9822C16.412 27.8992 16.4386 27.8206 16.4583 27.7512C16.4738 27.6965 16.5 27.5984 16.5 27.4978C16.5 27.024 16.5479 26.2283 16.6924 25.4097C16.8355 24.5986 17.0633 23.826 17.3909 23.3136C17.5692 23.1319 17.8163 22.8566 18.0278 22.569C18.141 22.4151 18.2518 22.247 18.3364 22.0804C18.4147 21.9263 18.5 21.7176 18.5 21.4978C18.5 20.9007 18.4696 20.0738 18.3902 19.2951C18.3504 18.9057 18.2978 18.5216 18.2288 18.1807C18.1613 17.8477 18.0721 17.5241 17.9472 17.2743C17.6953 16.7705 17.4526 16.2847 17.2721 15.8634C17.1821 15.6534 17.1116 15.4687 17.0643 15.3132C17.0151 15.1515 17 15.0502 17 14.9978C17 14.8682 16.9764 14.7218 16.8989 14.5837C16.8175 14.4388 16.6965 14.3386 16.5632 14.2791C16.3298 14.1749 16.0759 14.2029 15.9157 14.2303C15.7353 14.2612 15.541 14.3178 15.3708 14.3693C15.3357 14.38 15.3015 14.3904 15.268 14.4006C15.1279 14.4434 15.0007 14.4822 14.8787 14.5127L14.6912 14.5596L14.584 14.7205C14.5527 14.7674 14.4659 14.8558 14.2922 14.9789C14.1277 15.0955 13.9199 15.2192 13.6864 15.346C13.3648 15.5207 13.0252 15.6854 12.7085 15.839C12.5578 15.9121 12.4123 15.9827 12.2764 16.0507C11.8973 16.2402 11.6884 16.6368 11.5615 16.9756C11.4255 17.3385 11.3349 17.7714 11.2685 18.1955C11.2015 18.6234 11.1556 19.0673 11.1165 19.4575C11.1135 19.4884 11.1104 19.5188 11.1074 19.5488C11.0716 19.9079 11.0421 20.2039 11.0068 20.4157L11 20.4565V20.4979V21.4978V21.5789L11.0257 21.6559L11.5 23.0789V23.8798L11.191 24.4979H10.1332C9.91322 24.3691 9.78126 24.2744 9.68977 24.1849C9.61237 24.1092 9.55446 24.0279 9.50164 23.9065ZM25.4612 17.3473C25.4614 17.3473 25.4627 17.349 25.4648 17.3524C25.4621 17.3489 25.4611 17.3472 25.4612 17.3473ZM0.882399 38.813C0.882409 38.8131 0.882228 38.8135 0.881816 38.8144L0.882399 38.813Z" fill="white" stroke="white"/>
<path d="M57.41 26C57.01 26 56.67 25.87 56.39 25.61C56.13 25.33 56 24.99 56 24.59V3.98C56 3.56 56.13 3.22 56.39 2.96C56.67 2.7 57.01 2.57 57.41 2.57H62.9C64.38 2.57 65.69 2.88 66.83 3.5C67.99 4.12 68.89 4.98 69.53 6.08C70.19 7.18 70.52 8.45 70.52 9.89C70.52 11.25 70.19 12.46 69.53 13.52C68.89 14.58 67.99 15.41 66.83 16.01C65.69 16.61 64.38 16.91 62.9 16.91H58.82V24.59C58.82 24.99 58.69 25.33 58.43 25.61C58.17 25.87 57.83 26 57.41 26ZM69.89 26C69.63 26 69.4 25.95 69.2 25.85C69 25.73 68.82 25.55 68.66 25.31L63.14 16.43L65.9 15.65L71 23.84C71.34 24.38 71.39 24.88 71.15 25.34C70.91 25.78 70.49 26 69.89 26ZM58.82 14.27H62.9C63.86 14.27 64.7 14.09 65.42 13.73C66.16 13.35 66.74 12.83 67.16 12.17C67.58 11.49 67.79 10.73 67.79 9.89C67.79 8.97 67.58 8.16 67.16 7.46C66.74 6.74 66.16 6.19 65.42 5.81C64.7 5.41 63.86 5.21 62.9 5.21H58.82V14.27ZM79.0986 26.15C77.6986 26.15 76.4486 25.86 75.3486 25.28C74.2486 24.68 73.3786 23.81 72.7386 22.67C72.0986 21.53 71.7786 20.14 71.7786 18.5V10.94C71.7786 10.56 71.9086 10.24 72.1686 9.98C72.4486 9.7 72.7786 9.56 73.1586 9.56C73.5586 9.56 73.8886 9.7 74.1486 9.98C74.4286 10.24 74.5686 10.56 74.5686 10.94V18.5C74.5686 19.66 74.7886 20.62 75.2286 21.38C75.6686 22.14 76.2586 22.71 76.9986 23.09C77.7586 23.45 78.6086 23.63 79.5486 23.63C80.4686 23.63 81.2786 23.45 81.9786 23.09C82.6986 22.73 83.2686 22.25 83.6886 21.65C84.1286 21.03 84.3486 20.34 84.3486 19.58H86.1486C86.1086 20.82 85.7786 21.94 85.1586 22.94C84.5586 23.94 83.7286 24.73 82.6686 25.31C81.6086 25.87 80.4186 26.15 79.0986 26.15ZM85.7286 26C85.3286 26 84.9986 25.87 84.7386 25.61C84.4786 25.35 84.3486 25.02 84.3486 24.62V10.94C84.3486 10.54 84.4786 10.21 84.7386 9.95C84.9986 9.69 85.3286 9.56 85.7286 9.56C86.1286 9.56 86.4586 9.69 86.7186 9.95C86.9786 10.21 87.1086 10.54 87.1086 10.94V24.62C87.1086 25.02 86.9786 25.35 86.7186 25.61C86.4586 25.87 86.1286 26 85.7286 26ZM104.049 26.03C103.649 26.03 103.309 25.9 103.029 25.64C102.769 25.36 102.639 25.03 102.639 24.65V17.09C102.639 15.91 102.419 14.95 101.979 14.21C101.539 13.45 100.949 12.89 100.209 12.53C99.4692 12.15 98.6192 11.96 97.6592 11.96C96.7592 11.96 95.9492 12.14 95.2292 12.5C94.5092 12.86 93.9292 13.34 93.4892 13.94C93.0692 14.54 92.8592 15.23 92.8592 16.01H91.0592C91.0792 14.75 91.3992 13.63 92.0192 12.65C92.6392 11.65 93.4792 10.87 94.5392 10.31C95.5992 9.73 96.7892 9.44 98.1092 9.44C99.5092 9.44 100.759 9.74 101.859 10.34C102.959 10.92 103.829 11.78 104.469 12.92C105.109 14.06 105.429 15.45 105.429 17.09V24.65C105.429 25.03 105.289 25.36 105.009 25.64C104.749 25.9 104.429 26.03 104.049 26.03ZM91.4792 26.03C91.0792 26.03 90.7492 25.9 90.4892 25.64C90.2292 25.38 90.0992 25.05 90.0992 24.65V10.97C90.0992 10.55 90.2292 10.22 90.4892 9.98C90.7492 9.72 91.0792 9.59 91.4792 9.59C91.8992 9.59 92.2292 9.72 92.4692 9.98C92.7292 10.22 92.8592 10.55 92.8592 10.97V24.65C92.8592 25.05 92.7292 25.38 92.4692 25.64C92.2292 25.9 91.8992 26.03 91.4792 26.03ZM115.74 26.3C114.46 26.3 113.25 26.11 112.11 25.73C110.99 25.33 110.01 24.78 109.17 24.08C108.33 23.38 107.71 22.56 107.31 21.62C107.11 21.24 107.1 20.89 107.28 20.57C107.48 20.25 107.8 20.04 108.24 19.94C108.58 19.86 108.91 19.91 109.23 20.09C109.55 20.25 109.79 20.5 109.95 20.84C110.21 21.38 110.62 21.87 111.18 22.31C111.74 22.73 112.41 23.07 113.19 23.33C113.99 23.59 114.84 23.72 115.74 23.72C116.74 23.72 117.64 23.56 118.44 23.24C119.26 22.92 119.91 22.46 120.39 21.86C120.89 21.24 121.14 20.49 121.14 19.61C121.14 18.49 120.71 17.5 119.85 16.64C118.99 15.78 117.61 15.24 115.71 15.02C113.29 14.76 111.39 14.03 110.01 12.83C108.63 11.63 107.94 10.15 107.94 8.39C107.94 7.11 108.29 6.02 108.99 5.12C109.69 4.2 110.65 3.5 111.87 3.02C113.09 2.54 114.47 2.3 116.01 2.3C117.17 2.3 118.2 2.47 119.1 2.81C120.02 3.15 120.81 3.62 121.47 4.22C122.15 4.8 122.73 5.47 123.21 6.23C123.45 6.63 123.54 7.01 123.48 7.37C123.44 7.71 123.26 7.98 122.94 8.18C122.58 8.38 122.2 8.42 121.8 8.3C121.42 8.18 121.13 7.95 120.93 7.61C120.63 7.07 120.25 6.6 119.79 6.2C119.33 5.8 118.78 5.48 118.14 5.24C117.52 5 116.78 4.88 115.92 4.88C114.4 4.86 113.15 5.16 112.17 5.78C111.19 6.38 110.7 7.29 110.7 8.51C110.7 9.15 110.86 9.75 111.18 10.31C111.52 10.85 112.1 11.33 112.92 11.75C113.76 12.15 114.93 12.44 116.43 12.62C118.85 12.9 120.7 13.64 121.98 14.84C123.26 16.02 123.9 17.58 123.9 19.52C123.9 20.64 123.68 21.62 123.24 22.46C122.82 23.3 122.23 24.01 121.47 24.59C120.71 25.15 119.83 25.58 118.83 25.88C117.85 26.16 116.82 26.3 115.74 26.3ZM147.802 26.03C147.402 26.03 147.072 25.9 146.812 25.64C146.552 25.38 146.422 25.05 146.422 24.65V16.04C146.422 14.72 146.082 13.71 145.402 13.01C144.742 12.31 143.882 11.96 142.822 11.96C141.702 11.96 140.782 12.35 140.062 13.13C139.362 13.89 139.012 14.88 139.012 16.1H136.672C136.692 14.78 136.982 13.62 137.542 12.62C138.102 11.62 138.882 10.84 139.882 10.28C140.882 9.72 142.012 9.44 143.272 9.44C144.432 9.44 145.452 9.7 146.332 10.22C147.232 10.74 147.932 11.5 148.432 12.5C148.932 13.48 149.182 14.66 149.182 16.04V24.65C149.182 25.05 149.052 25.38 148.792 25.64C148.552 25.9 148.222 26.03 147.802 26.03ZM127.402 26.03C127.002 26.03 126.672 25.9 126.412 25.64C126.152 25.38 126.022 25.05 126.022 24.65V11C126.022 10.58 126.152 10.25 126.412 10.01C126.672 9.75 127.002 9.62 127.402 9.62C127.822 9.62 128.152 9.75 128.392 10.01C128.652 10.25 128.782 10.58 128.782 11V24.65C128.782 25.05 128.652 25.38 128.392 25.64C128.152 25.9 127.822 26.03 127.402 26.03ZM137.632 26.03C137.232 26.03 136.902 25.9 136.642 25.64C136.382 25.38 136.252 25.05 136.252 24.65V16.04C136.252 14.72 135.912 13.71 135.232 13.01C134.572 12.31 133.712 11.96 132.652 11.96C131.532 11.96 130.602 12.34 129.862 13.1C129.142 13.86 128.782 14.83 128.782 16.01H126.982C127.002 14.73 127.272 13.6 127.792 12.62C128.332 11.62 129.062 10.84 129.982 10.28C130.902 9.72 131.942 9.44 133.102 9.44C134.262 9.44 135.282 9.7 136.162 10.22C137.062 10.74 137.762 11.5 138.262 12.5C138.762 13.48 139.012 14.66 139.012 16.04V24.65C139.012 25.05 138.882 25.38 138.622 25.64C138.382 25.9 138.052 26.03 137.632 26.03ZM158.854 26.12C157.354 26.12 156.014 25.76 154.834 25.04C153.654 24.32 152.724 23.33 152.044 22.07C151.364 20.81 151.024 19.39 151.024 17.81C151.024 16.21 151.384 14.79 152.104 13.55C152.844 12.29 153.834 11.3 155.074 10.58C156.334 9.84 157.744 9.47 159.304 9.47C160.884 9.47 162.294 9.84 163.534 10.58C164.774 11.3 165.754 12.29 166.474 13.55C167.214 14.81 167.594 16.23 167.614 17.81L166.534 18.08C166.534 19.6 166.194 20.97 165.514 22.19C164.834 23.41 163.914 24.37 162.754 25.07C161.614 25.77 160.314 26.12 158.854 26.12ZM159.304 23.66C160.384 23.66 161.344 23.41 162.184 22.91C163.024 22.39 163.684 21.69 164.164 20.81C164.664 19.91 164.914 18.91 164.914 17.81C164.914 16.69 164.664 15.69 164.164 14.81C163.684 13.91 163.024 13.21 162.184 12.71C161.344 12.19 160.384 11.93 159.304 11.93C158.264 11.93 157.314 12.19 156.454 12.71C155.594 13.21 154.914 13.91 154.414 14.81C153.934 15.69 153.694 16.69 153.694 17.81C153.694 18.91 153.934 19.91 154.414 20.81C154.914 21.69 155.594 22.39 156.454 22.91C157.314 23.41 158.264 23.66 159.304 23.66ZM166.204 26.03C165.804 26.03 165.474 25.9 165.214 25.64C164.954 25.38 164.824 25.05 164.824 24.65V19.85L165.394 16.97L167.614 17.81V24.65C167.614 25.05 167.474 25.38 167.194 25.64C166.934 25.9 166.604 26.03 166.204 26.03ZM170.997 15.8C171.037 14.58 171.347 13.49 171.927 12.53C172.527 11.57 173.317 10.81 174.297 10.25C175.277 9.69 176.357 9.41 177.537 9.41C178.637 9.41 179.457 9.58 179.997 9.92C180.557 10.26 180.767 10.69 180.627 11.21C180.567 11.51 180.447 11.73 180.267 11.87C180.087 11.99 179.877 12.06 179.637 12.08C179.397 12.08 179.137 12.06 178.857 12.02C177.637 11.82 176.547 11.85 175.587 12.11C174.627 12.37 173.867 12.82 173.307 13.46C172.747 14.1 172.467 14.88 172.467 15.8H170.997ZM171.087 26C170.667 26 170.337 25.89 170.097 25.67C169.857 25.43 169.737 25.09 169.737 24.65V10.94C169.737 10.52 169.857 10.19 170.097 9.95C170.337 9.71 170.667 9.59 171.087 9.59C171.547 9.59 171.887 9.71 172.107 9.95C172.347 10.17 172.467 10.5 172.467 10.94V24.65C172.467 25.07 172.347 25.4 172.107 25.64C171.887 25.88 171.547 26 171.087 26ZM187.726 26C186.706 26 185.786 25.75 184.966 25.25C184.146 24.73 183.506 24.04 183.046 23.18C182.586 22.3 182.356 21.3 182.356 20.18V5.75C182.356 5.35 182.476 5.02 182.716 4.76C182.976 4.5 183.306 4.37 183.706 4.37C184.106 4.37 184.436 4.5 184.696 4.76C184.956 5.02 185.086 5.35 185.086 5.75V20.18C185.086 21.08 185.336 21.82 185.836 22.4C186.336 22.98 186.966 23.27 187.726 23.27H188.656C188.996 23.27 189.276 23.4 189.496 23.66C189.736 23.92 189.856 24.25 189.856 24.65C189.856 25.05 189.706 25.38 189.406 25.64C189.126 25.88 188.756 26 188.296 26H187.726ZM180.736 12.56C180.376 12.56 180.076 12.45 179.836 12.23C179.596 12.01 179.476 11.73 179.476 11.39C179.476 11.03 179.596 10.74 179.836 10.52C180.076 10.3 180.376 10.19 180.736 10.19H187.966C188.326 10.19 188.626 10.3 188.866 10.52C189.106 10.74 189.226 11.03 189.226 11.39C189.226 11.73 189.106 12.01 188.866 12.23C188.626 12.45 188.326 12.56 187.966 12.56H180.736Z" fill="white"/>
<path d="M58.08 45.048C57.44 45.048 56.872 44.916 56.376 44.652C55.88 44.388 55.492 44.024 55.212 43.56C54.932 43.088 54.788 42.552 54.78 41.952H55.368C55.368 41.344 55.492 40.812 55.74 40.356C55.996 39.892 56.344 39.528 56.784 39.264C57.232 39 57.744 38.868 58.32 38.868C58.896 38.868 59.404 39 59.844 39.264C60.292 39.528 60.64 39.892 60.888 40.356C61.144 40.812 61.272 41.344 61.272 41.952C61.272 42.552 61.136 43.088 60.864 43.56C60.592 44.024 60.216 44.388 59.736 44.652C59.256 44.916 58.704 45.048 58.08 45.048ZM58.08 43.968C58.48 43.968 58.828 43.884 59.124 43.716C59.428 43.54 59.664 43.3 59.832 42.996C60.008 42.692 60.096 42.344 60.096 41.952C60.096 41.56 60.008 41.216 59.832 40.92C59.664 40.616 59.428 40.38 59.124 40.212C58.828 40.036 58.48 39.948 58.08 39.948C57.664 39.948 57.296 40.036 56.976 40.212C56.656 40.38 56.404 40.616 56.22 40.92C56.044 41.216 55.956 41.56 55.956 41.952C55.956 42.344 56.044 42.692 56.22 42.996C56.404 43.3 56.656 43.54 56.976 43.716C57.296 43.884 57.664 43.968 58.08 43.968ZM54.78 41.952L54.792 40.596C54.8 39.652 55.06 38.788 55.572 38.004C56.092 37.22 56.896 36.584 57.984 36.096L60.228 35.1C60.388 35.036 60.532 35.028 60.66 35.076C60.788 35.116 60.88 35.208 60.936 35.352C60.992 35.504 61.004 35.644 60.972 35.772C60.948 35.892 60.832 36 60.624 36.096L58.188 37.212C57.628 37.468 57.168 37.772 56.808 38.124C56.448 38.476 56.18 38.872 56.004 39.312C55.836 39.744 55.744 40.212 55.728 40.716L55.704 41.952H54.78ZM65.5796 45.048C64.9156 45.048 64.3236 44.908 63.8036 44.628C63.2916 44.34 62.8876 43.948 62.5916 43.452C62.3036 42.948 62.1596 42.372 62.1596 41.724C62.1596 41.068 62.2956 40.492 62.5676 39.996C62.8476 39.492 63.2316 39.1 63.7196 38.82C64.2076 38.532 64.7676 38.388 65.3996 38.388C66.0236 38.388 66.5596 38.528 67.0076 38.808C67.4556 39.08 67.7956 39.46 68.0276 39.948C68.2676 40.428 68.3876 40.984 68.3876 41.616C68.3876 41.768 68.3356 41.896 68.2316 42C68.1276 42.096 67.9956 42.144 67.8356 42.144H62.9996V41.184H67.7996L67.3076 41.52C67.2996 41.12 67.2196 40.764 67.0676 40.452C66.9156 40.132 66.6996 39.88 66.4196 39.696C66.1396 39.512 65.7996 39.42 65.3996 39.42C64.9436 39.42 64.5516 39.52 64.2236 39.72C63.9036 39.92 63.6596 40.196 63.4916 40.548C63.3236 40.892 63.2396 41.284 63.2396 41.724C63.2396 42.164 63.3396 42.556 63.5396 42.9C63.7396 43.244 64.0156 43.516 64.3676 43.716C64.7196 43.916 65.1236 44.016 65.5796 44.016C65.8276 44.016 66.0796 43.972 66.3356 43.884C66.5996 43.788 66.8116 43.68 66.9716 43.56C67.0916 43.472 67.2196 43.428 67.3556 43.428C67.4996 43.42 67.6236 43.46 67.7276 43.548C67.8636 43.668 67.9356 43.8 67.9436 43.944C67.9516 44.088 67.8876 44.212 67.7516 44.316C67.4796 44.532 67.1396 44.708 66.7316 44.844C66.3316 44.98 65.9476 45.048 65.5796 45.048ZM71.3768 45.048C70.8728 45.048 70.4208 44.972 70.0208 44.82C69.6288 44.66 69.3168 44.44 69.0848 44.16C68.8608 43.88 68.7488 43.56 68.7488 43.2C68.7488 42.84 68.8488 42.532 69.0488 42.276C69.2568 42.02 69.5528 41.804 69.9368 41.628C70.3288 41.452 70.7968 41.312 71.3408 41.208C71.8848 41.096 72.2528 40.964 72.4448 40.812C72.6368 40.652 72.7328 40.448 72.7328 40.2C72.7328 39.944 72.6048 39.756 72.3488 39.636C72.0928 39.508 71.7968 39.444 71.4608 39.444C71.1808 39.444 70.9008 39.488 70.6208 39.576C70.3488 39.664 70.1208 39.792 69.9368 39.96C69.8168 40.072 69.6848 40.148 69.5408 40.188C69.3968 40.228 69.2808 40.22 69.1928 40.164C69.0408 40.068 68.9448 39.944 68.9048 39.792C68.8728 39.64 68.9088 39.5 69.0128 39.372C69.2528 39.076 69.5888 38.84 70.0208 38.664C70.4608 38.48 70.9448 38.388 71.4728 38.388C71.9208 38.388 72.3288 38.46 72.6968 38.604C73.0648 38.74 73.3568 38.944 73.5728 39.216C73.7968 39.488 73.9088 39.824 73.9088 40.224C73.9088 40.688 73.7208 41.08 73.3448 41.4C72.9688 41.712 72.3968 41.952 71.6288 42.12C70.9968 42.248 70.5608 42.4 70.3208 42.576C70.0808 42.744 69.9648 42.948 69.9728 43.188C69.9808 43.436 70.1008 43.628 70.3328 43.764C70.5648 43.9 70.9128 43.968 71.3768 43.968C71.7928 43.968 72.1448 43.928 72.4328 43.848C72.7288 43.76 72.9608 43.628 73.1288 43.452C73.2408 43.332 73.3688 43.252 73.5128 43.212C73.6568 43.172 73.8048 43.216 73.9568 43.344C74.0928 43.456 74.1608 43.584 74.1608 43.728C74.1608 43.872 74.1008 44.008 73.9808 44.136C73.7168 44.4 73.3488 44.62 72.8768 44.796C72.4048 44.964 71.9048 45.048 71.3768 45.048ZM77.8012 45.048C77.2172 45.048 76.6932 44.904 76.2292 44.616C75.7652 44.32 75.3972 43.924 75.1252 43.428C74.8612 42.924 74.7292 42.356 74.7292 41.724C74.7292 41.092 74.8732 40.524 75.1612 40.02C75.4572 39.516 75.8532 39.12 76.3492 38.832C76.8532 38.536 77.4172 38.388 78.0412 38.388C78.6652 38.388 79.2252 38.536 79.7212 38.832C80.2172 39.12 80.6092 39.516 80.8972 40.02C81.1932 40.524 81.3412 41.092 81.3412 41.724H80.8732C80.8732 42.356 80.7372 42.924 80.4652 43.428C80.2012 43.924 79.8372 44.32 79.3732 44.616C78.9092 44.904 78.3852 45.048 77.8012 45.048ZM78.0412 43.968C78.4492 43.968 78.8132 43.872 79.1332 43.68C79.4532 43.48 79.7052 43.212 79.8892 42.876C80.0732 42.532 80.1652 42.148 80.1652 41.724C80.1652 41.292 80.0732 40.908 79.8892 40.572C79.7052 40.228 79.4532 39.96 79.1332 39.768C78.8132 39.568 78.4492 39.468 78.0412 39.468C77.6412 39.468 77.2772 39.568 76.9492 39.768C76.6292 39.96 76.3732 40.228 76.1812 40.572C75.9972 40.908 75.9052 41.292 75.9052 41.724C75.9052 42.148 75.9972 42.532 76.1812 42.876C76.3732 43.212 76.6292 43.48 76.9492 43.68C77.2772 43.872 77.6412 43.968 78.0412 43.968ZM80.7292 45.012C80.5532 45.012 80.4052 44.956 80.2852 44.844C80.1732 44.724 80.1172 44.576 80.1172 44.4V42.564L80.3452 41.292L81.3412 41.724V44.4C81.3412 44.576 81.2812 44.724 81.1612 44.844C81.0492 44.956 80.9052 45.012 80.7292 45.012ZM85.3228 45.06C84.7708 45.06 84.2748 44.944 83.8348 44.712C83.4028 44.472 83.0588 44.124 82.8028 43.668C82.5548 43.212 82.4308 42.652 82.4308 41.988V39.036C82.4308 38.86 82.4868 38.716 82.5988 38.604C82.7188 38.484 82.8668 38.424 83.0428 38.424C83.2188 38.424 83.3628 38.484 83.4748 38.604C83.5948 38.716 83.6548 38.86 83.6548 39.036V41.988C83.6548 42.436 83.7388 42.808 83.9068 43.104C84.0748 43.392 84.3028 43.608 84.5908 43.752C84.8788 43.888 85.2028 43.956 85.5628 43.956C85.9068 43.956 86.2108 43.888 86.4748 43.752C86.7468 43.616 86.9628 43.432 87.1228 43.2C87.2828 42.968 87.3628 42.708 87.3628 42.42H88.1188C88.1188 42.916 87.9948 43.364 87.7468 43.764C87.5068 44.164 87.1748 44.48 86.7508 44.712C86.3348 44.944 85.8588 45.06 85.3228 45.06ZM87.9748 45C87.7988 45 87.6508 44.944 87.5308 44.832C87.4188 44.712 87.3628 44.564 87.3628 44.388V39.036C87.3628 38.852 87.4188 38.704 87.5308 38.592C87.6508 38.48 87.7988 38.424 87.9748 38.424C88.1588 38.424 88.3068 38.48 88.4188 38.592C88.5308 38.704 88.5868 38.852 88.5868 39.036V44.388C88.5868 44.564 88.5308 44.712 88.4188 44.832C88.3068 44.944 88.1588 45 87.9748 45ZM85.5748 37.572C85.1668 37.572 84.7988 37.504 84.4708 37.368C84.1428 37.224 83.8828 37.032 83.6908 36.792C83.4988 36.544 83.4028 36.268 83.4028 35.964C83.4028 35.796 83.4548 35.656 83.5588 35.544C83.6628 35.432 83.7908 35.376 83.9428 35.376C84.1028 35.376 84.2308 35.432 84.3268 35.544C84.4308 35.656 84.4828 35.796 84.4828 35.964C84.4828 36.164 84.5868 36.336 84.7948 36.48C85.0028 36.616 85.2628 36.684 85.5748 36.684C85.8868 36.684 86.1468 36.616 86.3548 36.48C86.5628 36.336 86.6668 36.164 86.6668 35.964C86.6668 35.796 86.7188 35.656 86.8228 35.544C86.9268 35.432 87.0548 35.376 87.2068 35.376C87.3668 35.376 87.4948 35.432 87.5908 35.544C87.6948 35.656 87.7468 35.796 87.7468 35.964C87.7468 36.268 87.6508 36.544 87.4588 36.792C87.2668 37.032 87.0068 37.224 86.6788 37.368C86.3588 37.504 85.9908 37.572 85.5748 37.572ZM95.5181 38.448C95.6381 38.448 95.7461 38.48 95.8421 38.544C95.9381 38.608 96.0141 38.708 96.0701 38.844L98.5421 44.208C98.6141 44.368 98.6221 44.512 98.5661 44.64C98.5101 44.76 98.4141 44.852 98.2781 44.916C98.1021 44.996 97.9501 45.016 97.8221 44.976C97.6941 44.936 97.5861 44.836 97.4981 44.676L95.2421 39.552H95.8541L93.5261 44.676C93.4541 44.828 93.3461 44.928 93.2021 44.976C93.0661 45.016 92.9141 44.996 92.7461 44.916C92.5941 44.844 92.4861 44.748 92.4221 44.628C92.3661 44.508 92.3781 44.368 92.4581 44.208L94.9421 38.844C95.0621 38.58 95.2541 38.448 95.5181 38.448ZM102.585 45.048C101.921 45.048 101.329 44.908 100.809 44.628C100.297 44.34 99.8931 43.948 99.5971 43.452C99.3091 42.948 99.1651 42.372 99.1651 41.724C99.1651 41.068 99.3011 40.492 99.5731 39.996C99.8531 39.492 100.237 39.1 100.725 38.82C101.213 38.532 101.773 38.388 102.405 38.388C103.029 38.388 103.565 38.528 104.013 38.808C104.461 39.08 104.801 39.46 105.033 39.948C105.273 40.428 105.393 40.984 105.393 41.616C105.393 41.768 105.341 41.896 105.237 42C105.133 42.096 105.001 42.144 104.841 42.144H100.005V41.184H104.805L104.313 41.52C104.305 41.12 104.225 40.764 104.073 40.452C103.921 40.132 103.705 39.88 103.425 39.696C103.145 39.512 102.805 39.42 102.405 39.42C101.949 39.42 101.557 39.52 101.229 39.72C100.909 39.92 100.665 40.196 100.497 40.548C100.329 40.892 100.245 41.284 100.245 41.724C100.245 42.164 100.345 42.556 100.545 42.9C100.745 43.244 101.021 43.516 101.373 43.716C101.725 43.916 102.129 44.016 102.585 44.016C102.833 44.016 103.085 43.972 103.341 43.884C103.605 43.788 103.817 43.68 103.977 43.56C104.097 43.472 104.225 43.428 104.361 43.428C104.505 43.42 104.629 43.46 104.733 43.548C104.869 43.668 104.941 43.8 104.949 43.944C104.957 44.088 104.893 44.212 104.757 44.316C104.485 44.532 104.145 44.708 103.737 44.844C103.337 44.98 102.953 45.048 102.585 45.048ZM108.382 45.048C107.878 45.048 107.426 44.972 107.026 44.82C106.634 44.66 106.322 44.44 106.09 44.16C105.866 43.88 105.754 43.56 105.754 43.2C105.754 42.84 105.854 42.532 106.054 42.276C106.262 42.02 106.558 41.804 106.942 41.628C107.334 41.452 107.802 41.312 108.346 41.208C108.89 41.096 109.258 40.964 109.45 40.812C109.642 40.652 109.738 40.448 109.738 40.2C109.738 39.944 109.61 39.756 109.354 39.636C109.098 39.508 108.802 39.444 108.466 39.444C108.186 39.444 107.906 39.488 107.626 39.576C107.354 39.664 107.126 39.792 106.942 39.96C106.822 40.072 106.69 40.148 106.546 40.188C106.402 40.228 106.286 40.22 106.198 40.164C106.046 40.068 105.95 39.944 105.91 39.792C105.878 39.64 105.914 39.5 106.018 39.372C106.258 39.076 106.594 38.84 107.026 38.664C107.466 38.48 107.95 38.388 108.478 38.388C108.926 38.388 109.334 38.46 109.702 38.604C110.07 38.74 110.362 38.944 110.578 39.216C110.802 39.488 110.914 39.824 110.914 40.224C110.914 40.688 110.726 41.08 110.35 41.4C109.974 41.712 109.402 41.952 108.634 42.12C108.002 42.248 107.566 42.4 107.326 42.576C107.086 42.744 106.97 42.948 106.978 43.188C106.986 43.436 107.106 43.628 107.338 43.764C107.57 43.9 107.918 43.968 108.382 43.968C108.798 43.968 109.15 43.928 109.438 43.848C109.734 43.76 109.966 43.628 110.134 43.452C110.246 43.332 110.374 43.252 110.518 43.212C110.662 43.172 110.81 43.216 110.962 43.344C111.098 43.456 111.166 43.584 111.166 43.728C111.166 43.872 111.106 44.008 110.986 44.136C110.722 44.4 110.354 44.62 109.882 44.796C109.41 44.964 108.91 45.048 108.382 45.048ZM117.399 44.856C117.295 44.952 117.147 45 116.955 45C116.771 44.992 116.627 44.936 116.523 44.832L113.607 41.7L116.355 38.628C116.459 38.516 116.603 38.452 116.787 38.436C116.979 38.42 117.127 38.46 117.231 38.556C117.351 38.668 117.419 38.796 117.435 38.94C117.451 39.076 117.407 39.2 117.303 39.312L115.131 41.64L117.435 44.112C117.539 44.216 117.591 44.34 117.591 44.484C117.591 44.62 117.527 44.744 117.399 44.856ZM112.647 45.012C112.471 45.012 112.331 44.956 112.227 44.844C112.123 44.724 112.071 44.576 112.071 44.4V39.048C112.071 38.864 112.123 38.716 112.227 38.604C112.331 38.492 112.471 38.436 112.647 38.436C112.831 38.436 112.979 38.492 113.091 38.604C113.211 38.716 113.271 38.864 113.271 39.048V41.052H114.807V42.18H113.271V44.4C113.271 44.576 113.211 44.724 113.091 44.844C112.979 44.956 112.831 45.012 112.647 45.012ZM120.869 45.048C120.221 45.048 119.649 44.908 119.153 44.628C118.657 44.34 118.265 43.948 117.977 43.452C117.697 42.948 117.557 42.372 117.557 41.724C117.557 41.068 117.697 40.492 117.977 39.996C118.265 39.492 118.657 39.1 119.153 38.82C119.649 38.532 120.221 38.388 120.869 38.388C121.509 38.388 122.077 38.532 122.573 38.82C123.069 39.1 123.457 39.492 123.737 39.996C124.025 40.492 124.169 41.068 124.169 41.724C124.169 42.372 124.029 42.948 123.749 43.452C123.469 43.948 123.081 44.34 122.585 44.628C122.089 44.908 121.517 45.048 120.869 45.048ZM120.869 43.968C121.285 43.968 121.653 43.872 121.973 43.68C122.293 43.488 122.541 43.224 122.717 42.888C122.901 42.552 122.993 42.164 122.993 41.724C122.993 41.284 122.901 40.896 122.717 40.56C122.541 40.216 122.293 39.948 121.973 39.756C121.653 39.564 121.285 39.468 120.869 39.468C120.453 39.468 120.085 39.564 119.765 39.756C119.445 39.948 119.193 40.216 119.009 40.56C118.825 40.896 118.733 41.284 118.733 41.724C118.733 42.164 118.825 42.552 119.009 42.888C119.193 43.224 119.445 43.488 119.765 43.68C120.085 43.872 120.453 43.968 120.869 43.968ZM128.27 42.324C128.094 42.324 127.946 42.268 127.826 42.156C127.714 42.044 127.658 41.9 127.658 41.724C127.658 41.54 127.714 41.392 127.826 41.28C127.946 41.168 128.094 41.112 128.27 41.112H130.946C131.122 41.112 131.266 41.168 131.378 41.28C131.49 41.392 131.546 41.54 131.546 41.724C131.546 41.9 131.49 42.044 131.378 42.156C131.266 42.268 131.122 42.324 130.946 42.324H128.27ZM135.165 47.88C135.021 47.88 134.873 47.86 134.721 47.82C134.577 47.78 134.433 47.72 134.289 47.64C134.113 47.536 133.997 47.408 133.941 47.256C133.885 47.104 133.909 46.956 134.013 46.812C134.109 46.676 134.225 46.592 134.361 46.56C134.497 46.528 134.641 46.556 134.793 46.644C134.881 46.692 134.961 46.728 135.033 46.752C135.113 46.776 135.193 46.788 135.273 46.788C135.529 46.788 135.773 46.656 136.005 46.392C136.245 46.128 136.481 45.736 136.713 45.216L139.581 38.736C139.653 38.576 139.761 38.468 139.905 38.412C140.057 38.356 140.209 38.364 140.361 38.436C140.497 38.492 140.585 38.596 140.625 38.748C140.665 38.892 140.645 39.048 140.565 39.216L137.673 45.696C137.385 46.344 137.017 46.868 136.569 47.268C136.129 47.676 135.661 47.88 135.165 47.88ZM137.901 44.736C137.749 44.8 137.605 44.808 137.469 44.76C137.341 44.704 137.237 44.6 137.157 44.448L134.409 39.228C134.329 39.076 134.317 38.932 134.373 38.796C134.437 38.652 134.545 38.548 134.697 38.484C134.849 38.42 134.989 38.416 135.117 38.472C135.253 38.52 135.361 38.62 135.441 38.772L138.081 43.944C138.161 44.096 138.189 44.252 138.165 44.412C138.141 44.564 138.053 44.672 137.901 44.736ZM146.611 44.856C146.507 44.952 146.359 45 146.167 45C145.983 44.992 145.839 44.936 145.735 44.832L142.819 41.7L145.567 38.628C145.671 38.516 145.815 38.452 145.999 38.436C146.191 38.42 146.339 38.46 146.443 38.556C146.563 38.668 146.631 38.796 146.647 38.94C146.663 39.076 146.619 39.2 146.515 39.312L144.343 41.64L146.647 44.112C146.751 44.216 146.803 44.34 146.803 44.484C146.803 44.62 146.739 44.744 146.611 44.856ZM141.859 45.012C141.683 45.012 141.543 44.956 141.439 44.844C141.335 44.724 141.283 44.576 141.283 44.4V39.048C141.283 38.864 141.335 38.716 141.439 38.604C141.543 38.492 141.683 38.436 141.859 38.436C142.043 38.436 142.191 38.492 142.303 38.604C142.423 38.716 142.483 38.864 142.483 39.048V41.052H144.019V42.18H142.483V44.4C142.483 44.576 142.423 44.724 142.303 44.844C142.191 44.956 142.043 45.012 141.859 45.012ZM148.315 47.808C148.139 47.808 147.991 47.748 147.871 47.628C147.759 47.516 147.703 47.372 147.703 47.196V41.724C147.711 41.092 147.859 40.524 148.147 40.02C148.435 39.516 148.827 39.12 149.323 38.832C149.819 38.536 150.379 38.388 151.003 38.388C151.635 38.388 152.199 38.536 152.695 38.832C153.191 39.12 153.583 39.516 153.871 40.02C154.167 40.524 154.315 41.092 154.315 41.724C154.315 42.356 154.179 42.924 153.907 43.428C153.643 43.924 153.279 44.32 152.815 44.616C152.351 44.904 151.827 45.048 151.243 45.048C150.771 45.048 150.335 44.952 149.935 44.76C149.543 44.56 149.207 44.292 148.927 43.956V47.196C148.927 47.372 148.871 47.516 148.759 47.628C148.647 47.748 148.499 47.808 148.315 47.808ZM151.003 43.968C151.411 43.968 151.775 43.872 152.095 43.68C152.415 43.48 152.667 43.212 152.851 42.876C153.043 42.532 153.139 42.148 153.139 41.724C153.139 41.292 153.043 40.908 152.851 40.572C152.667 40.228 152.415 39.96 152.095 39.768C151.775 39.568 151.411 39.468 151.003 39.468C150.603 39.468 150.239 39.568 149.911 39.768C149.591 39.96 149.339 40.228 149.155 40.572C148.971 40.908 148.879 41.292 148.879 41.724C148.879 42.148 148.971 42.532 149.155 42.876C149.339 43.212 149.591 43.48 149.911 43.68C150.239 43.872 150.603 43.968 151.003 43.968ZM158.624 45.048C157.96 45.048 157.368 44.908 156.848 44.628C156.336 44.34 155.932 43.948 155.636 43.452C155.348 42.948 155.204 42.372 155.204 41.724C155.204 41.068 155.34 40.492 155.612 39.996C155.892 39.492 156.276 39.1 156.764 38.82C157.252 38.532 157.812 38.388 158.444 38.388C159.068 38.388 159.604 38.528 160.052 38.808C160.5 39.08 160.84 39.46 161.072 39.948C161.312 40.428 161.432 40.984 161.432 41.616C161.432 41.768 161.38 41.896 161.276 42C161.172 42.096 161.04 42.144 160.88 42.144H156.044V41.184H160.844L160.352 41.52C160.344 41.12 160.264 40.764 160.112 40.452C159.96 40.132 159.744 39.88 159.464 39.696C159.184 39.512 158.844 39.42 158.444 39.42C157.988 39.42 157.596 39.52 157.268 39.72C156.948 39.92 156.704 40.196 156.536 40.548C156.368 40.892 156.284 41.284 156.284 41.724C156.284 42.164 156.384 42.556 156.584 42.9C156.784 43.244 157.06 43.516 157.412 43.716C157.764 43.916 158.168 44.016 158.624 44.016C158.872 44.016 159.124 43.972 159.38 43.884C159.644 43.788 159.856 43.68 160.016 43.56C160.136 43.472 160.264 43.428 160.4 43.428C160.544 43.42 160.668 43.46 160.772 43.548C160.908 43.668 160.98 43.8 160.988 43.944C160.996 44.088 160.932 44.212 160.796 44.316C160.524 44.532 160.184 44.708 159.776 44.844C159.376 44.98 158.992 45.048 158.624 45.048ZM167.937 45.012C167.761 45.012 167.613 44.956 167.493 44.844C167.381 44.724 167.325 44.576 167.325 44.4V41.448C167.325 40.992 167.241 40.62 167.073 40.332C166.905 40.044 166.677 39.832 166.389 39.696C166.109 39.552 165.785 39.48 165.417 39.48C165.081 39.48 164.777 39.548 164.505 39.684C164.233 39.82 164.017 40.004 163.857 40.236C163.697 40.46 163.617 40.72 163.617 41.016H162.861C162.861 40.512 162.981 40.064 163.221 39.672C163.469 39.272 163.805 38.956 164.229 38.724C164.653 38.492 165.129 38.376 165.657 38.376C166.209 38.376 166.701 38.496 167.133 38.736C167.573 38.968 167.917 39.312 168.165 39.768C168.421 40.224 168.549 40.784 168.549 41.448V44.4C168.549 44.576 168.489 44.724 168.369 44.844C168.257 44.956 168.113 45.012 167.937 45.012ZM163.005 45.012C162.829 45.012 162.681 44.956 162.561 44.844C162.449 44.724 162.393 44.576 162.393 44.4V39.048C162.393 38.864 162.449 38.716 162.561 38.604C162.681 38.492 162.829 38.436 163.005 38.436C163.189 38.436 163.337 38.492 163.449 38.604C163.561 38.716 163.617 38.864 163.617 39.048V44.4C163.617 44.576 163.561 44.724 163.449 44.844C163.337 44.956 163.189 45.012 163.005 45.012ZM172.433 38.448C172.553 38.448 172.661 38.48 172.757 38.544C172.853 38.608 172.929 38.708 172.985 38.844L175.457 44.208C175.529 44.368 175.537 44.512 175.481 44.64C175.425 44.76 175.329 44.852 175.193 44.916C175.017 44.996 174.865 45.016 174.737 44.976C174.609 44.936 174.501 44.836 174.413 44.676L172.157 39.552H172.769L170.441 44.676C170.369 44.828 170.261 44.928 170.117 44.976C169.981 45.016 169.829 44.996 169.661 44.916C169.509 44.844 169.401 44.748 169.337 44.628C169.281 44.508 169.293 44.368 169.373 44.208L171.857 38.844C171.977 38.58 172.169 38.448 172.433 38.448ZM180.568 45C180.4 45 180.26 44.944 180.148 44.832C180.036 44.712 179.98 44.564 179.98 44.388V42.804H178.288V42.648C177.864 42.648 177.488 42.564 177.16 42.396C176.832 42.228 176.576 41.996 176.392 41.7C176.208 41.404 176.116 41.06 176.116 40.668C176.116 40.244 176.216 39.864 176.416 39.528C176.624 39.192 176.904 38.928 177.256 38.736C177.616 38.536 178.028 38.436 178.492 38.436H180.568C180.752 38.436 180.9 38.492 181.012 38.604C181.124 38.716 181.18 38.864 181.18 39.048V44.4C181.172 44.576 181.112 44.72 181 44.832C180.896 44.944 180.752 45 180.568 45ZM176.308 44.856C176.18 44.744 176.12 44.62 176.128 44.484C176.136 44.348 176.184 44.224 176.272 44.112L177.736 42.204H179.332L177.28 44.76C177.144 44.936 176.976 45.02 176.776 45.012C176.576 45.004 176.42 44.952 176.308 44.856ZM178.492 41.796H179.98V39.576H178.492C178.172 39.576 177.892 39.68 177.652 39.888C177.412 40.088 177.292 40.348 177.292 40.668C177.292 41.004 177.412 41.276 177.652 41.484C177.892 41.692 178.172 41.796 178.492 41.796ZM185.502 45.06C184.95 45.06 184.454 44.944 184.014 44.712C183.582 44.472 183.238 44.124 182.982 43.668C182.734 43.212 182.61 42.652 182.61 41.988V39.036C182.61 38.86 182.666 38.716 182.778 38.604C182.898 38.484 183.046 38.424 183.222 38.424C183.398 38.424 183.542 38.484 183.654 38.604C183.774 38.716 183.834 38.86 183.834 39.036V41.988C183.834 42.436 183.918 42.808 184.086 43.104C184.254 43.392 184.482 43.608 184.77 43.752C185.058 43.888 185.382 43.956 185.742 43.956C186.086 43.956 186.39 43.888 186.654 43.752C186.926 43.616 187.142 43.432 187.302 43.2C187.462 42.968 187.542 42.708 187.542 42.42H188.298C188.298 42.916 188.174 43.364 187.926 43.764C187.686 44.164 187.354 44.48 186.93 44.712C186.514 44.944 186.038 45.06 185.502 45.06ZM188.154 45C187.978 45 187.83 44.944 187.71 44.832C187.598 44.712 187.542 44.564 187.542 44.388V39.036C187.542 38.852 187.598 38.704 187.71 38.592C187.83 38.48 187.978 38.424 188.154 38.424C188.338 38.424 188.486 38.48 188.598 38.592C188.71 38.704 188.766 38.852 188.766 39.036V44.388C188.766 44.564 188.71 44.712 188.598 44.832C188.486 44.944 188.338 45 188.154 45ZM185.754 37.572C185.346 37.572 184.978 37.504 184.65 37.368C184.322 37.224 184.062 37.032 183.87 36.792C183.678 36.544 183.582 36.268 183.582 35.964C183.582 35.796 183.634 35.656 183.738 35.544C183.842 35.432 183.97 35.376 184.122 35.376C184.282 35.376 184.41 35.432 184.506 35.544C184.61 35.656 184.662 35.796 184.662 35.964C184.662 36.164 184.766 36.336 184.974 36.48C185.182 36.616 185.442 36.684 185.754 36.684C186.066 36.684 186.326 36.616 186.534 36.48C186.742 36.336 186.846 36.164 186.846 35.964C186.846 35.796 186.898 35.656 187.002 35.544C187.106 35.432 187.234 35.376 187.386 35.376C187.546 35.376 187.674 35.432 187.77 35.544C187.874 35.656 187.926 35.796 187.926 35.964C187.926 36.268 187.83 36.544 187.638 36.792C187.446 37.032 187.186 37.224 186.858 37.368C186.538 37.504 186.17 37.572 185.754 37.572ZM195.481 45.096C195.097 45.096 194.741 45.056 194.413 44.976C194.093 44.896 193.801 44.788 193.537 44.652C193.281 44.508 193.057 44.352 192.865 44.184C192.737 44.064 192.673 43.924 192.673 43.764C192.673 43.596 192.741 43.46 192.877 43.356C192.997 43.26 193.141 43.22 193.309 43.236C193.485 43.244 193.633 43.304 193.753 43.416C193.945 43.584 194.185 43.728 194.473 43.848C194.761 43.96 195.093 44.016 195.469 44.016C195.909 44.016 196.257 43.924 196.513 43.74C196.777 43.548 196.909 43.304 196.909 43.008C196.909 42.744 196.813 42.536 196.621 42.384C196.437 42.224 196.205 42.14 195.925 42.132H195.241C195.065 42.132 194.917 42.084 194.797 41.988C194.677 41.892 194.617 41.776 194.617 41.64C194.617 41.504 194.677 41.392 194.797 41.304C194.917 41.216 195.065 41.172 195.241 41.172H195.913C196.177 41.156 196.373 41.068 196.501 40.908C196.637 40.748 196.705 40.548 196.705 40.308C196.705 40.044 196.593 39.836 196.369 39.684C196.145 39.532 195.821 39.456 195.397 39.456C195.053 39.456 194.741 39.504 194.461 39.6C194.181 39.696 193.949 39.836 193.765 40.02C193.637 40.148 193.497 40.22 193.345 40.236C193.201 40.244 193.061 40.196 192.925 40.092C192.821 40.012 192.773 39.896 192.781 39.744C192.797 39.592 192.865 39.452 192.985 39.324C193.241 39.044 193.585 38.816 194.017 38.64C194.449 38.464 194.901 38.376 195.373 38.376C195.861 38.376 196.293 38.46 196.669 38.628C197.045 38.796 197.341 39.02 197.557 39.3C197.773 39.58 197.881 39.888 197.881 40.224C197.881 40.504 197.805 40.752 197.653 40.968C197.509 41.176 197.313 41.34 197.065 41.46C196.825 41.572 196.557 41.628 196.261 41.628V41.532C196.605 41.532 196.913 41.6 197.185 41.736C197.465 41.872 197.685 42.056 197.845 42.288C198.005 42.512 198.085 42.772 198.085 43.068C198.085 43.452 197.969 43.796 197.737 44.1C197.513 44.404 197.205 44.648 196.813 44.832C196.421 45.008 195.977 45.096 195.481 45.096ZM201.725 45.048C201.125 45.048 200.593 44.908 200.129 44.628C199.673 44.34 199.313 43.948 199.049 43.452C198.785 42.948 198.653 42.372 198.653 41.724C198.653 41.068 198.793 40.492 199.073 39.996C199.361 39.492 199.753 39.1 200.249 38.82C200.745 38.532 201.317 38.388 201.965 38.388C202.605 38.388 203.173 38.532 203.669 38.82C204.165 39.1 204.553 39.492 204.833 39.996C205.121 40.492 205.265 41.068 205.265 41.724H204.557C204.557 42.372 204.433 42.948 204.185 43.452C203.945 43.948 203.613 44.34 203.189 44.628C202.765 44.908 202.277 45.048 201.725 45.048ZM201.941 47.724C201.373 47.724 200.841 47.612 200.345 47.388C199.849 47.164 199.429 46.836 199.085 46.404C198.981 46.268 198.941 46.128 198.965 45.984C198.997 45.84 199.077 45.724 199.205 45.636C199.349 45.54 199.497 45.508 199.649 45.54C199.809 45.572 199.937 45.652 200.033 45.78C200.249 46.052 200.521 46.264 200.849 46.416C201.177 46.568 201.549 46.644 201.965 46.644C202.349 46.644 202.701 46.552 203.021 46.368C203.349 46.184 203.609 45.912 203.801 45.552C203.993 45.192 204.089 44.752 204.089 44.232V42.528L204.485 41.472L205.265 41.724V44.316C205.265 44.948 205.125 45.52 204.845 46.032C204.565 46.552 204.173 46.964 203.669 47.268C203.173 47.572 202.597 47.724 201.941 47.724ZM201.965 43.968C202.381 43.968 202.749 43.872 203.069 43.68C203.389 43.488 203.637 43.224 203.813 42.888C203.997 42.552 204.089 42.164 204.089 41.724C204.089 41.284 203.997 40.896 203.813 40.56C203.637 40.216 203.389 39.948 203.069 39.756C202.749 39.564 202.381 39.468 201.965 39.468C201.549 39.468 201.181 39.564 200.861 39.756C200.541 39.948 200.289 40.216 200.105 40.56C199.921 40.896 199.829 41.284 199.829 41.724C199.829 42.164 199.921 42.552 200.105 42.888C200.289 43.224 200.541 43.488 200.861 43.68C201.181 43.872 201.549 43.968 201.965 43.968ZM209.462 45.048C208.814 45.048 208.242 44.908 207.746 44.628C207.25 44.34 206.858 43.948 206.57 43.452C206.29 42.948 206.15 42.372 206.15 41.724C206.15 41.068 206.29 40.492 206.57 39.996C206.858 39.492 207.25 39.1 207.746 38.82C208.242 38.532 208.814 38.388 209.462 38.388C210.102 38.388 210.67 38.532 211.166 38.82C211.662 39.1 212.05 39.492 212.33 39.996C212.618 40.492 212.762 41.068 212.762 41.724C212.762 42.372 212.622 42.948 212.342 43.452C212.062 43.948 211.674 44.34 211.178 44.628C210.682 44.908 210.11 45.048 209.462 45.048ZM209.462 43.968C209.878 43.968 210.246 43.872 210.566 43.68C210.886 43.488 211.134 43.224 211.31 42.888C211.494 42.552 211.586 42.164 211.586 41.724C211.586 41.284 211.494 40.896 211.31 40.56C211.134 40.216 210.886 39.948 210.566 39.756C210.246 39.564 209.878 39.468 209.462 39.468C209.046 39.468 208.678 39.564 208.358 39.756C208.038 39.948 207.786 40.216 207.602 40.56C207.418 40.896 207.326 41.284 207.326 41.724C207.326 42.164 207.418 42.552 207.602 42.888C207.786 43.224 208.038 43.488 208.358 43.68C208.678 43.872 209.046 43.968 209.462 43.968ZM214.596 47.808C214.42 47.808 214.272 47.748 214.152 47.628C214.04 47.516 213.984 47.372 213.984 47.196V41.724C213.992 41.092 214.14 40.524 214.428 40.02C214.716 39.516 215.108 39.12 215.604 38.832C216.1 38.536 216.66 38.388 217.284 38.388C217.916 38.388 218.48 38.536 218.976 38.832C219.472 39.12 219.864 39.516 220.152 40.02C220.448 40.524 220.596 41.092 220.596 41.724C220.596 42.356 220.46 42.924 220.188 43.428C219.924 43.924 219.56 44.32 219.096 44.616C218.632 44.904 218.108 45.048 217.524 45.048C217.052 45.048 216.616 44.952 216.216 44.76C215.824 44.56 215.488 44.292 215.208 43.956V47.196C215.208 47.372 215.152 47.516 215.04 47.628C214.928 47.748 214.78 47.808 214.596 47.808ZM217.284 43.968C217.692 43.968 218.056 43.872 218.376 43.68C218.696 43.48 218.948 43.212 219.132 42.876C219.324 42.532 219.42 42.148 219.42 41.724C219.42 41.292 219.324 40.908 219.132 40.572C218.948 40.228 218.696 39.96 218.376 39.768C218.056 39.568 217.692 39.468 217.284 39.468C216.884 39.468 216.52 39.568 216.192 39.768C215.872 39.96 215.62 40.228 215.436 40.572C215.252 40.908 215.16 41.292 215.16 41.724C215.16 42.148 215.252 42.532 215.436 42.876C215.62 43.212 215.872 43.48 216.192 43.68C216.52 43.872 216.884 43.968 217.284 43.968ZM224.797 45.048C224.149 45.048 223.577 44.908 223.081 44.628C222.585 44.34 222.193 43.948 221.905 43.452C221.625 42.948 221.485 42.372 221.485 41.724C221.485 41.068 221.625 40.492 221.905 39.996C222.193 39.492 222.585 39.1 223.081 38.82C223.577 38.532 224.149 38.388 224.797 38.388C225.437 38.388 226.005 38.532 226.501 38.82C226.997 39.1 227.385 39.492 227.665 39.996C227.953 40.492 228.097 41.068 228.097 41.724C228.097 42.372 227.957 42.948 227.677 43.452C227.397 43.948 227.009 44.34 226.513 44.628C226.017 44.908 225.445 45.048 224.797 45.048ZM224.797 43.968C225.213 43.968 225.581 43.872 225.901 43.68C226.221 43.488 226.469 43.224 226.645 42.888C226.829 42.552 226.921 42.164 226.921 41.724C226.921 41.284 226.829 40.896 226.645 40.56C226.469 40.216 226.221 39.948 225.901 39.756C225.581 39.564 225.213 39.468 224.797 39.468C224.381 39.468 224.013 39.564 223.693 39.756C223.373 39.948 223.121 40.216 222.937 40.56C222.753 40.896 222.661 41.284 222.661 41.724C222.661 42.164 222.753 42.552 222.937 42.888C223.121 43.224 223.373 43.488 223.693 43.68C224.013 43.872 224.381 43.968 224.797 43.968ZM229.931 45C229.755 45 229.607 44.944 229.487 44.832C229.375 44.712 229.319 44.564 229.319 44.388V39.036C229.335 38.86 229.399 38.716 229.511 38.604C229.623 38.492 229.763 38.436 229.931 38.436C230.115 38.436 230.263 38.492 230.375 38.604C230.487 38.716 230.543 38.864 230.543 39.048V41.112H232.871V41.352C233.311 41.352 233.699 41.428 234.035 41.58C234.379 41.732 234.647 41.944 234.839 42.216C235.031 42.48 235.127 42.788 235.127 43.14C235.127 43.5 235.031 43.82 234.839 44.1C234.647 44.38 234.379 44.6 234.035 44.76C233.699 44.92 233.311 45 232.871 45H229.931ZM230.543 43.86H232.871C233.191 43.86 233.451 43.784 233.651 43.632C233.851 43.472 233.951 43.268 233.951 43.02C233.951 42.756 233.851 42.54 233.651 42.372C233.451 42.204 233.191 42.12 232.871 42.12H230.543V43.86ZM231.923 41.76V41.112H233.063C233.263 41.112 233.427 41.036 233.555 40.884C233.683 40.724 233.747 40.524 233.747 40.284C233.747 40.076 233.671 39.904 233.519 39.768C233.367 39.632 233.175 39.564 232.943 39.564H229.943V38.436H232.943C233.319 38.436 233.651 38.512 233.939 38.664C234.235 38.808 234.467 39.012 234.635 39.276C234.803 39.532 234.887 39.828 234.887 40.164C234.887 40.628 234.711 41.012 234.359 41.316C234.015 41.612 233.583 41.76 233.063 41.76H231.923ZM238.996 45.108C238.396 45.108 237.872 45 237.424 44.784C236.984 44.568 236.64 44.264 236.392 43.872C236.152 43.472 236.032 43.004 236.032 42.468V39.036C236.048 38.868 236.112 38.728 236.224 38.616C236.344 38.496 236.484 38.436 236.644 38.436C236.82 38.436 236.964 38.496 237.076 38.616C237.196 38.728 237.256 38.872 237.256 39.048V40.392H239.224C239.744 40.392 240.208 40.484 240.616 40.668C241.032 40.844 241.36 41.104 241.6 41.448C241.84 41.784 241.96 42.188 241.96 42.66C241.96 43.132 241.836 43.552 241.588 43.92C241.348 44.288 241.008 44.58 240.568 44.796C240.128 45.004 239.604 45.108 238.996 45.108ZM238.984 43.98C239.496 43.98 239.924 43.872 240.268 43.656C240.612 43.432 240.784 43.1 240.784 42.66C240.784 42.244 240.636 41.936 240.34 41.736C240.044 41.528 239.672 41.424 239.224 41.424H237.256V42.444C237.256 42.732 237.332 42.992 237.484 43.224C237.636 43.456 237.84 43.64 238.096 43.776C238.36 43.912 238.656 43.98 238.984 43.98ZM246.062 45.048C245.398 45.048 244.806 44.908 244.286 44.628C243.774 44.34 243.37 43.948 243.074 43.452C242.786 42.948 242.642 42.372 242.642 41.724C242.642 41.068 242.778 40.492 243.05 39.996C243.33 39.492 243.714 39.1 244.202 38.82C244.69 38.532 245.25 38.388 245.882 38.388C246.506 38.388 247.042 38.528 247.49 38.808C247.938 39.08 248.278 39.46 248.51 39.948C248.75 40.428 248.87 40.984 248.87 41.616C248.87 41.768 248.818 41.896 248.714 42C248.61 42.096 248.478 42.144 248.318 42.144H243.482V41.184H248.282L247.79 41.52C247.782 41.12 247.702 40.764 247.55 40.452C247.398 40.132 247.182 39.88 246.902 39.696C246.622 39.512 246.282 39.42 245.882 39.42C245.426 39.42 245.034 39.52 244.706 39.72C244.386 39.92 244.142 40.196 243.974 40.548C243.806 40.892 243.722 41.284 243.722 41.724C243.722 42.164 243.822 42.556 244.022 42.9C244.222 43.244 244.498 43.516 244.85 43.716C245.202 43.916 245.606 44.016 246.062 44.016C246.31 44.016 246.562 43.972 246.818 43.884C247.082 43.788 247.294 43.68 247.454 43.56C247.574 43.472 247.702 43.428 247.838 43.428C247.982 43.42 248.106 43.46 248.21 43.548C248.346 43.668 248.418 43.8 248.426 43.944C248.434 44.088 248.37 44.212 248.234 44.316C247.962 44.532 247.622 44.708 247.214 44.844C246.814 44.98 246.43 45.048 246.062 45.048Z" fill="white"/>
</svg>
